<svg xmlns="http://www.w3.org/2000/svg" xmlns:xlink="http://www.w3.org/1999/xlink" version="1.1" width="256" height="256" viewBox="0 0 256 256" xml:space="preserve">
<desc>Created with Fabric.js 1.7.22</desc>
<defs>
</defs>
<g transform="translate(128 128) scale(0.72 0.72)" style="">
	<g style="stroke: none; stroke-width: 0; stroke-dasharray: none; stroke-linecap: butt; stroke-linejoin: miter; stroke-miterlimit: 10; fill: none; fill-rule: nonzero; opacity: 1;" transform="translate(-175.05 -175.05) scale(3.89 3.89)" >
	<path d="M 86.536 29.739 H 3.464 c -1.657 0 -3 -1.343 -3 -3 V 12.744 c 0 -3.984 3.241 -7.225 7.225 -7.225 h 74.623 c 3.983 0 7.225 3.241 7.225 7.225 v 13.996 C 89.536 28.396 88.193 29.739 86.536 29.739 z M 6.464 23.739 h 77.072 V 12.744 c 0 -0.675 -0.55 -1.225 -1.225 -1.225 H 7.689 c -0.675 0 -1.225 0.549 -1.225 1.225 V 23.739 z" style="stroke: none; stroke-width: 1; stroke-dasharray: none; stroke-linecap: butt; stroke-linejoin: miter; stroke-miterlimit: 10; fill: rgb(0,0,0); fill-rule: nonzero; opacity: 1;" transform=" matrix(1 0 0 1 0 0) " stroke-linecap="round" />
	<path d="M 81.716 90 H 8.284 c -4.312 0 -7.819 -3.508 -7.819 -7.819 V 26.739 c 0 -1.657 1.343 -3 3 -3 h 83.072 c 1.657 0 3 1.343 3 3 v 55.441 C 89.536 86.492 86.028 90 81.716 90 z M 6.464 29.739 v 52.441 C 6.464 83.184 7.28 84 8.284 84 h 73.432 c 1.004 0 1.82 -0.816 1.82 -1.819 V 29.739 H 6.464 z" style="stroke: none; stroke-width: 1; stroke-dasharray: none; stroke-linecap: butt; stroke-linejoin: miter; stroke-miterlimit: 10; fill: rgb(0,0,0); fill-rule: nonzero; opacity: 1;" transform=" matrix(1 0 0 1 0 0) " stroke-linecap="round" />
	<path d="M 69.955 17.04 c -1.657 0 -3 -1.343 -3 -3 V 3 c 0 -1.657 1.343 -3 3 -3 s 3 1.343 3 3 v 11.04 C 72.955 15.696 71.612 17.04 69.955 17.04 z" style="stroke: none; stroke-width: 1; stroke-dasharray: none; stroke-linecap: butt; stroke-linejoin: miter; stroke-miterlimit: 10; fill: rgb(0,0,0); fill-rule: nonzero; opacity: 1;" transform=" matrix(1 0 0 1 0 0) " stroke-linecap="round" />
	<path d="M 20.045 17.04 c -1.657 0 -3 -1.343 -3 -3 V 3 c 0 -1.657 1.343 -3 3 -3 s 3 1.343 3 3 v 11.04 C 23.045 15.696 21.702 17.04 20.045 17.04 z" style="stroke: none; stroke-width: 1; stroke-dasharray: none; stroke-linecap: butt; stroke-linejoin: miter; stroke-miterlimit: 10; fill: rgb(0,0,0); fill-rule: nonzero; opacity: 1;" transform=" matrix(1 0 0 1 0 0) " stroke-linecap="round" />
</g>
</g>
</svg>